<svg width="911" height="266" viewBox="0 0 911 266" fill="none" xmlns="http://www.w3.org/2000/svg">
<g clip-path="url(#clip0_475_2013)">
<path d="M138.833 83.4158L128.974 58.7673C122.95 43.7075 108.364 33.8325 92.1441 33.8325H59.4995C37.5923 33.8325 19.833 51.5918 19.833 73.499V192.499C19.833 214.407 37.5923 232.166 59.4995 232.166H99.1663M138.833 83.4158H178.5C200.407 83.4158 218.166 101.175 218.166 123.082V137.958M138.833 83.4158H84.2913" stroke="#00684A" stroke-width="19.8333" stroke-linecap="round" stroke-linejoin="round"/>
<path d="M218.166 202.416C184.166 196.75 184.166 196.75 178.5 162.75C172.833 196.75 172.833 196.75 138.833 202.416C172.833 208.083 172.833 208.083 178.5 242.083C184.166 208.083 184.166 208.083 218.166 202.416Z" fill="#00684A" stroke="#00684A" stroke-width="14.8749" stroke-linecap="round" stroke-linejoin="round"/>
<circle cx="228.082" cy="242.082" r="9.91663" fill="#00684A"/>
</g>
<path d="M360.982 170.755C349.963 170.755 340.295 168.432 331.977 163.787C323.659 159.142 317.124 152.606 312.37 144.18C307.725 135.646 305.403 125.654 305.403 114.204C305.403 102.969 307.671 93.1386 312.208 84.7127C316.853 76.2867 323.551 69.7512 332.301 65.1061C341.051 60.353 351.529 57.9765 363.736 57.9765C369.57 57.9765 374.971 58.6246 379.94 59.9209C385.017 61.2172 389.77 63.1077 394.199 65.5923L394.848 88.7636H390.473L382.371 72.3978C381.074 69.8052 379.832 67.9148 378.644 66.7265C377.455 65.5382 375.889 64.674 373.945 64.1339C372.54 63.5938 371.19 63.2697 369.894 63.1617C368.597 62.9456 366.923 62.8376 364.871 62.8376C358.065 62.8376 352.07 64.62 346.884 68.1848C341.699 71.6417 337.648 77.1509 334.732 84.7127C331.923 92.2744 330.519 102.105 330.519 114.204C330.519 132.46 333.489 145.693 339.431 153.903C345.48 162.005 353.528 166.056 363.574 166.056C365.951 166.056 368.003 165.731 369.732 165.083C371.784 164.759 373.189 163.949 373.945 162.653C374.701 161.248 375.079 159.52 375.079 157.468C375.079 153.039 375.025 148.231 374.917 143.046C374.917 137.753 374.917 132.946 374.917 128.625C374.917 124.412 372.702 121.819 368.273 120.847L360.982 119.227V115.824H405.704V119.227L403.76 119.713C401.707 120.361 400.141 121.333 399.061 122.629C397.98 123.818 397.44 125.492 397.44 127.653C397.44 131.974 397.386 136.403 397.278 140.94C397.278 145.369 397.278 149.852 397.278 154.389V161.356C391.661 164.381 385.935 166.704 380.102 168.324C374.377 169.944 368.003 170.755 360.982 170.755ZM452.091 87.7914C458.897 87.7914 464.73 89.1957 469.591 92.0044C474.452 94.813 478.179 98.7019 480.772 103.671C483.472 108.532 484.823 114.15 484.823 120.523C484.823 121.927 484.769 123.278 484.661 124.574C484.553 125.762 484.337 126.896 484.013 127.977H435.239C435.347 139.103 437.4 147.097 441.397 151.958C445.502 156.819 451.443 159.25 459.221 159.25C464.622 159.25 468.997 158.386 472.346 156.657C475.695 154.821 478.773 152.282 481.582 149.042L484.175 151.472C480.934 157.414 476.505 162.059 470.887 165.407C465.378 168.648 458.789 170.269 451.119 170.269C443.449 170.269 436.698 168.648 430.864 165.407C425.031 162.167 420.44 157.522 417.091 151.472C413.85 145.315 412.23 137.969 412.23 129.435C412.23 120.577 414.12 113.069 417.901 106.912C421.79 100.754 426.759 96.0553 432.809 92.8146C438.966 89.4658 445.394 87.7914 452.091 87.7914ZM451.281 92.4905C448.148 92.4905 445.394 93.4087 443.017 95.2451C440.748 96.9735 438.912 100.106 437.508 104.643C436.211 109.072 435.455 115.338 435.239 123.44H464.244C465.432 112.529 465 104.643 462.948 99.7822C460.895 94.9211 457.006 92.4905 451.281 92.4905ZM533.585 170.269C525.591 170.269 518.569 168.594 512.52 165.245C506.578 161.897 501.933 157.143 498.584 150.986C495.344 144.829 493.723 137.483 493.723 128.949C493.723 120.415 495.452 113.069 498.909 106.912C502.473 100.754 507.226 96.0553 513.168 92.8146C519.217 89.4658 526.023 87.7914 533.585 87.7914C541.146 87.7914 547.898 89.4658 553.839 92.8146C559.889 96.0553 564.642 100.754 568.099 106.912C571.663 112.961 573.446 120.307 573.446 128.949C573.446 137.483 571.771 144.883 568.423 151.148C565.182 157.306 560.591 162.059 554.649 165.407C548.708 168.648 541.686 170.269 533.585 170.269ZM533.585 165.731C537.474 165.731 540.606 164.705 542.983 162.653C545.467 160.492 547.25 156.765 548.33 151.472C549.41 146.179 549.95 138.779 549.95 129.273C549.95 119.659 549.41 112.205 548.33 106.912C547.25 101.511 545.467 97.7837 542.983 95.7312C540.606 93.5707 537.474 92.4905 533.585 92.4905C529.696 92.4905 526.563 93.5707 524.186 95.7312C521.81 97.7837 520.027 101.511 518.839 106.912C517.759 112.205 517.219 119.659 517.219 129.273C517.219 138.779 517.759 146.179 518.839 151.472C520.027 156.765 521.81 160.492 524.186 162.653C526.563 164.705 529.696 165.731 533.585 165.731ZM615.717 170.269C609.344 170.269 603.619 168.864 598.541 166.056C593.464 163.139 589.467 158.71 586.551 152.768C583.742 146.719 582.338 139.049 582.338 129.759C582.338 120.469 583.958 112.745 587.199 106.588C590.44 100.322 594.761 95.6232 600.162 92.4905C605.563 89.3578 611.504 87.7914 617.986 87.7914C621.875 87.7914 625.602 88.2775 629.167 89.2497C632.731 90.1139 635.864 91.4643 638.565 93.3007V72.2358C638.565 69.9673 638.187 68.3469 637.43 67.3747C636.782 66.2944 635.378 65.4842 633.217 64.9441L629.977 64.2959V61.2172L658.171 54.2496L660.278 55.708L659.63 78.5553V156.495C659.63 158.548 660.008 160.276 660.764 161.681C661.52 162.977 662.87 163.895 664.815 164.435L666.597 164.921V168L639.699 169.782L638.241 162.977C635.324 165.245 631.975 167.028 628.194 168.324C624.413 169.62 620.254 170.269 615.717 170.269ZM624.629 162.815C629.275 162.815 633.65 161.302 637.755 158.278V97.9998C633.758 95.5152 629.437 94.2729 624.791 94.2729C619.498 94.2729 614.961 97.0816 611.18 102.699C607.399 108.208 605.509 117.12 605.509 129.435C605.509 141.75 607.291 150.392 610.856 155.361C614.421 160.33 619.012 162.815 624.629 162.815ZM714.453 170.269C706.459 170.269 699.437 168.594 693.388 165.245C687.446 161.897 682.801 157.143 679.453 150.986C676.212 144.829 674.591 137.483 674.591 128.949C674.591 120.415 676.32 113.069 679.777 106.912C683.341 100.754 688.095 96.0553 694.036 92.8146C700.085 89.4658 706.891 87.7914 714.453 87.7914C722.014 87.7914 728.766 89.4658 734.707 92.8146C740.757 96.0553 745.51 100.754 748.967 106.912C752.532 112.961 754.314 120.307 754.314 128.949C754.314 137.483 752.64 144.883 749.291 151.148C746.05 157.306 741.459 162.059 735.518 165.407C729.576 168.648 722.555 170.269 714.453 170.269ZM714.453 165.731C718.342 165.731 721.474 164.705 723.851 162.653C726.335 160.492 728.118 156.765 729.198 151.472C730.278 146.179 730.819 138.779 730.819 129.273C730.819 119.659 730.278 112.205 729.198 106.912C728.118 101.511 726.335 97.7837 723.851 95.7312C721.474 93.5707 718.342 92.4905 714.453 92.4905C710.564 92.4905 707.431 93.5707 705.055 95.7312C702.678 97.7837 700.896 101.511 699.707 106.912C698.627 112.205 698.087 119.659 698.087 129.273C698.087 138.779 698.627 146.179 699.707 151.472C700.896 156.765 702.678 160.492 705.055 162.653C707.431 164.705 710.564 165.731 714.453 165.731ZM802.257 170.269C794.911 170.269 788.268 168.702 782.326 165.569C776.385 162.329 771.686 157.684 768.229 151.634C764.88 145.477 763.206 138.023 763.206 129.273C763.206 120.523 765.096 113.069 768.877 106.912C772.658 100.754 777.681 96.0553 783.947 92.8146C790.32 89.4658 797.288 87.7914 804.849 87.7914C811.007 87.7914 816.246 88.8176 820.567 90.8701C824.888 92.9226 828.183 95.5692 830.451 98.81C832.72 101.943 833.854 105.291 833.854 108.856C833.854 111.881 832.936 114.204 831.1 115.824C829.371 117.444 827.103 118.254 824.294 118.254C821.269 118.254 818.785 117.174 816.84 115.014C815.004 112.853 813.924 110.099 813.599 106.75C813.491 104.589 813.491 102.753 813.599 101.241C813.815 99.7282 813.815 98.2698 813.599 96.8655C813.167 95.0291 812.411 93.7868 811.331 93.1386C810.359 92.4905 808.954 92.1664 807.118 92.1664C800.312 92.1664 795.073 94.9211 791.4 100.43C787.835 105.832 786.053 114.636 786.053 126.842C786.053 137.321 788.052 145.369 792.048 150.986C796.045 156.603 802.257 159.412 810.683 159.412C815.652 159.412 819.757 158.494 822.998 156.657C826.238 154.713 829.209 151.958 831.91 148.393L834.502 150.338C831.802 156.819 827.643 161.789 822.025 165.245C816.516 168.594 809.927 170.269 802.257 170.269ZM870.185 170.269C865 170.269 860.3 169.674 856.087 168.486C851.983 167.406 848.04 165.839 844.259 163.787V144.667H848.634L853.495 153.903C855.547 157.9 857.87 160.87 860.462 162.815C863.163 164.759 866.566 165.731 870.671 165.731C875.748 165.731 879.799 164.651 882.824 162.491C885.848 160.222 887.361 157.197 887.361 153.417C887.361 149.96 886.226 147.151 883.958 144.991C881.689 142.83 877.638 140.832 871.805 138.995L864.675 136.727C858.302 134.782 853.225 131.866 849.444 127.977C845.771 123.98 843.935 119.011 843.935 113.069C843.935 108.424 845.177 104.211 847.662 100.43C850.146 96.5414 853.765 93.4627 858.518 91.1942C863.271 88.9257 869.05 87.7914 875.856 87.7914C880.285 87.7914 884.336 88.3315 888.009 89.4118C891.79 90.384 895.463 91.7883 899.027 93.6248L898.055 110.963H893.842L888.819 101.727C887.091 98.2698 885.308 95.8933 883.472 94.597C881.743 93.1927 879.043 92.4905 875.37 92.4905C871.481 92.4905 868.024 93.5167 865 95.5692C862.083 97.5137 860.625 100.268 860.625 103.833C860.625 107.182 861.867 109.937 864.351 112.097C866.836 114.15 870.833 116.094 876.342 117.93L883.31 120.037C891.196 122.521 896.813 125.816 900.162 129.921C903.51 134.026 905.185 138.941 905.185 144.667C905.185 152.336 902.106 158.548 895.949 163.301C889.899 167.946 881.311 170.269 870.185 170.269Z" fill="#00684A"/>
<path d="M768.925 243.837C767.84 244.973 766.497 245.542 764.895 245.542C763.293 245.542 761.924 244.973 760.787 243.837C759.702 242.7 759.16 241.331 759.16 239.729C759.16 238.179 759.728 236.836 760.865 235.699C762.002 234.51 763.345 233.916 764.895 233.916C766.445 233.916 767.788 234.51 768.925 235.699C770.062 236.836 770.63 238.179 770.63 239.729C770.63 241.331 770.062 242.7 768.925 243.837ZM796.143 245.697C790.769 245.697 786.249 243.733 782.58 239.806C778.963 235.88 777.155 231.126 777.155 225.546C777.155 219.966 778.963 215.212 782.58 211.286C786.249 207.359 790.769 205.395 796.143 205.395C798.985 205.395 801.62 206.041 804.048 207.333C806.528 208.573 808.44 210.175 809.783 212.138V186.795H816.449V244.922H809.783V238.954C808.44 240.917 806.528 242.545 804.048 243.837C801.62 245.077 798.985 245.697 796.143 245.697ZM797.151 239.574C800.974 239.574 804.126 238.231 806.606 235.544C809.086 232.857 810.326 229.525 810.326 225.546C810.326 221.568 809.086 218.235 806.606 215.548C804.126 212.862 800.974 211.518 797.151 211.518C793.275 211.518 790.098 212.862 787.618 215.548C785.138 218.235 783.898 221.568 783.898 225.546C783.898 229.525 785.138 232.857 787.618 235.544C790.098 238.231 793.275 239.574 797.151 239.574ZM845.503 245.697C839.871 245.697 835.195 243.785 831.475 239.961C827.806 236.138 825.972 231.333 825.972 225.546C825.972 219.708 827.755 214.902 831.32 211.131C834.937 207.307 839.716 205.395 845.658 205.395C851.651 205.395 856.353 207.514 859.763 211.751C863.173 215.987 864.672 221.18 864.258 227.329H832.715C832.818 230.842 834.11 233.787 836.59 236.164C839.07 238.489 842.067 239.651 845.58 239.651C850.85 239.651 854.596 237.481 856.818 233.141H863.638C862.657 236.758 860.564 239.755 857.361 242.132C854.157 244.508 850.205 245.697 845.503 245.697ZM853.098 214.076C850.98 212.216 848.422 211.286 845.425 211.286C842.429 211.286 839.742 212.19 837.365 213.998C835.04 215.807 833.593 218.493 833.025 222.058H857.206C856.586 218.545 855.216 215.884 853.098 214.076ZM885.286 244.922L867.383 206.171H874.823L888.076 235.544L901.329 206.171H908.769L890.866 244.922H885.286Z" fill="#00684A"/>
<defs>
<clipPath id="clip0_475_2013">
<rect width="238" height="238" fill="white" transform="translate(0 14)"/>
</clipPath>
</defs>
</svg>
